<svg width="121" height="119" viewBox="0 0 121 119" fill="none" xmlns="http://www.w3.org/2000/svg">
<path d="M62.922 50.5415L52.3345 60.9875C55.3078 62.4456 57.7141 64.8207 59.1861 67.75L69.7736 57.3022L62.922 50.5415ZM37.2813 66.4447C35.1115 68.5935 33.8938 71.4991 33.8938 74.5274C33.8938 77.5558 35.1115 80.4613 37.2813 82.6101C38.3533 83.6718 39.6282 84.5144 41.0327 85.0894C42.4373 85.6644 43.9436 85.9605 45.4649 85.9605C46.9862 85.9605 48.4925 85.6644 49.897 85.0894C51.3016 84.5144 52.5765 83.6718 53.6485 82.6101C55.8183 80.4613 57.036 77.5558 57.036 74.5274C57.036 71.4991 55.8183 68.5935 53.6485 66.4447C52.5754 65.3851 51.3 64.5442 49.8957 63.9705C48.4913 63.3968 46.9856 63.1014 45.4649 63.1014C43.9442 63.1014 42.4385 63.3968 41.0341 63.9705C39.6298 64.5442 38.3544 65.3851 37.2813 66.4447ZM22.9995 86.3122C22.6378 85.975 22.1584 85.7871 21.66 85.7871C21.1617 85.7871 20.6823 85.975 20.3205 86.3122L19.3109 87.3088C18.9577 87.6573 18.7593 88.1294 18.7593 88.6215C18.7593 89.1136 18.9577 89.5857 19.3109 89.9342L29.8417 100.326C30.0173 100.499 30.226 100.637 30.4557 100.731C30.6854 100.824 30.9316 100.873 31.1803 100.873C31.429 100.873 31.6752 100.824 31.9049 100.731C32.1346 100.637 32.3432 100.499 32.5188 100.326L33.5303 99.3296C33.8836 98.9811 34.082 98.5091 34.082 98.0169C34.082 97.5248 33.8836 97.0527 33.5303 96.7042L22.9995 86.3122Z" fill="#5F4401"/>
<path d="M75.6175 38.0149L65.5916 47.9068L72.4432 54.6693L82.471 44.7756L75.6175 38.0149Z" fill="#5F4401"/>
<path d="M73.7778 58.6205L60.5434 71.6789C61.0165 74.105 60.8798 76.608 60.1454 78.9703C59.4109 81.3326 58.1009 83.4827 56.3292 85.2338C54.906 86.6418 53.2138 87.7591 51.3499 88.5216C49.486 89.2841 47.4872 89.6766 45.4685 89.6766C43.4498 89.6766 41.451 89.2841 39.5871 88.5216C37.7232 87.7591 36.031 86.6418 34.6078 85.2338C31.7332 82.3869 30.12 78.5377 30.12 74.5256C30.12 70.5136 31.7332 66.6643 34.6078 63.8175C36.029 62.407 37.7211 61.2885 39.5857 60.5269C41.4504 59.7652 43.4504 59.3757 45.4694 59.381C46.4363 59.3823 47.401 59.4726 48.3507 59.6506L61.5851 46.5922L65.7086 42.5258C57.3785 38.1339 48.2297 38.6062 42.8452 43.9166C41.6581 45.0875 40.6904 46.4553 39.9866 47.957C38.8822 50.3308 37.0947 52.3342 34.8452 53.7198C32.5956 55.1054 29.9825 55.8124 27.3289 55.7534C24.0856 55.5276 20.8303 55.9737 17.7733 57.0626C14.7163 58.1516 11.9256 59.8592 9.58158 62.0752C-0.756357 72.2925 1.60692 91.2544 14.8734 104.346C21.7257 111.441 31.1425 115.598 41.087 115.917C44.1471 116.007 47.1943 115.49 50.0473 114.398C52.9003 113.306 55.5008 111.661 57.6942 109.56C59.8946 107.286 61.5986 104.593 62.7015 101.647C63.8043 98.7008 64.2827 95.5641 64.1072 92.4295C64.049 89.8178 64.7757 87.2471 66.1963 85.0397C67.6168 82.8323 69.6681 81.0861 72.0932 80.0201C73.7147 79.3141 75.1891 78.3187 76.4417 77.0841C81.8186 71.7775 82.3026 62.7669 77.8728 54.5689L73.7702 58.6168L73.7778 58.6205ZM36.2073 101.955L35.1977 102.952C34.6725 103.473 34.0471 103.886 33.358 104.167C32.6689 104.448 31.9298 104.591 31.1839 104.588C30.4373 104.591 29.6976 104.448 29.0078 104.167C28.318 103.886 27.692 103.473 27.1663 102.952L16.6374 92.5597C15.5803 91.5127 14.9871 90.097 14.9871 88.6215C14.9871 87.146 15.5803 85.7304 16.6374 84.6834L17.647 83.6868C18.7296 82.6718 20.1679 82.1056 21.6636 82.1056C23.1593 82.1056 24.5976 82.6718 25.6803 83.6868L36.211 94.0788C37.2704 95.1249 37.8648 96.5413 37.8641 98.0177C37.8634 99.4941 37.2676 100.91 36.2073 101.955Z" fill="#5F4401"/>
<path d="M78.2871 35.3803L85.1387 42.1429L95.1666 32.2491L91.8372 28.9636L88.315 25.4866L78.2871 35.3803Z" fill="#5F4401"/>
<path d="M117.308 21.05L115.086 18.8578L115.54 18.4078C116.029 17.9243 116.303 17.2702 116.303 16.5884C116.303 15.9067 116.029 15.2526 115.54 14.769L106.019 5.37547C105.526 4.90904 104.868 4.6485 104.184 4.6485C103.5 4.6485 102.842 4.90904 102.349 5.37547L101.867 5.85147L99.6152 3.62952C99.441 3.4517 99.2326 3.30978 99.0021 3.21202C98.7716 3.11427 98.5236 3.06264 98.2725 3.06015C98.0215 3.05767 97.7725 3.10437 97.54 3.19754C97.3076 3.2907 97.0963 3.42847 96.9185 3.6028C96.7408 3.77713 96.6001 3.98453 96.5047 4.21289C96.4093 4.44126 96.3611 4.68603 96.3629 4.93291C96.3647 5.17979 96.4165 5.42384 96.5153 5.65082C96.614 5.87781 96.7577 6.08318 96.9381 6.25496L99.2068 8.48621L95.2554 12.3742L93.3364 10.4813C93.1623 10.3035 92.9538 10.1616 92.7233 10.0638C92.4928 9.96606 92.2448 9.91444 91.9938 9.91195C91.7428 9.90946 91.4937 9.95617 91.2613 10.0493C91.0288 10.1425 90.8175 10.2803 90.6398 10.4546C90.462 10.6289 90.3213 10.8363 90.2259 11.0647C90.1305 11.2931 90.0823 11.5378 90.0842 11.7847C90.086 12.0316 90.1378 12.2756 90.2365 12.5026C90.3353 12.7296 90.479 12.935 90.6593 13.1068L92.9772 15.3938L89.1562 21.05L89.6516 21.539L94.4954 26.3195L99.6643 31.4235L105.431 27.6303L107.675 29.8448C107.849 30.0227 108.057 30.1646 108.288 30.2623C108.519 30.3601 108.767 30.4117 109.018 30.4142C109.269 30.4167 109.518 30.37 109.75 30.2768C109.983 30.1837 110.194 30.0459 110.372 29.8716C110.549 29.6972 110.69 29.4898 110.785 29.2615C110.881 29.0331 110.929 28.7883 110.927 28.5415C110.925 28.2946 110.874 28.0505 110.775 27.8235C110.676 27.5966 110.532 27.3912 110.352 27.2194L108.484 25.3768L112.417 21.4963L114.631 23.681C114.987 24.0202 115.464 24.2084 115.96 24.2048C116.455 24.2013 116.93 24.0064 117.281 23.6621C117.632 23.3179 117.831 22.8518 117.836 22.3642C117.841 21.8767 117.652 21.4067 117.308 21.0556V21.05Z" fill="#5F4401"/>
</svg>
