<svg width="45" height="45" viewBox="0 0 45 45" fill="none" xmlns="http://www.w3.org/2000/svg">
<path d="M31.3722 16.1919C31.6827 14.1676 31.3722 12.8181 30.2856 11.5724C29.0955 10.171 26.9222 9.6001 24.128 9.6001H16.1075C15.5383 9.6001 15.0726 10.0153 14.9691 10.5863L11.6057 31.8668C11.554 32.2821 11.8645 32.6454 12.2784 32.6454H17.2459L16.8837 34.8253C16.832 35.1887 17.0907 35.5001 17.5046 35.5001H21.696C22.2134 35.5001 22.6274 35.1368 22.6791 34.6696L23.5588 29.1678C23.6105 28.7007 24.0762 28.3374 24.5419 28.3374H25.1629C29.199 28.3374 32.4071 26.6765 33.3385 21.9013C33.7008 19.929 33.5455 18.2161 32.5106 17.0742C32.2002 16.7109 31.8379 16.4514 31.3722 16.1919Z" fill="#009CDE"/>
<path d="M31.3722 16.1919C31.6827 14.1676 31.3722 12.8181 30.2856 11.5724C29.0955 10.171 26.9222 9.6001 24.128 9.6001H16.1075C15.5383 9.6001 15.0726 10.0153 14.9691 10.5863L11.6057 31.8668C11.554 32.2821 11.8645 32.6454 12.2784 32.6454H17.2459L18.436 24.9636C18.5395 24.3927 19.0052 23.9775 19.5744 23.9775H21.9547C26.6117 23.9775 30.2339 22.1089 31.2687 16.6071C31.3205 16.5033 31.3205 16.3476 31.3722 16.1919Z" fill="#012169"/>
<path d="M19.8332 16.2438C19.8849 15.8805 20.3506 15.4133 20.8163 15.4133H27.1292C27.8536 15.4133 28.578 15.4652 29.199 15.569C29.7682 15.6728 30.803 15.9324 31.3205 16.2438C31.631 14.2195 31.3205 12.87 30.2339 11.6243C29.0955 10.171 26.9222 9.6001 24.128 9.6001H16.1075C15.5383 9.6001 15.0726 10.0153 14.9691 10.5863L11.6057 31.8668C11.554 32.2821 11.8645 32.6454 12.2784 32.6454H17.2459L19.8332 16.2438Z" fill="#003087"/>
</svg>
