<svg width="160" height="109" viewBox="0 0 160 109" fill="none" xmlns="http://www.w3.org/2000/svg">
<path d="M147.5 52.7969H12.5C11.1751 52.7996 9.90566 53.1593 8.96884 53.7975C8.03201 54.4357 7.50396 55.3006 7.5 56.2031V90.2656C7.50396 91.1682 8.03201 92.033 8.96884 92.6712C9.90566 93.3094 11.1751 93.6692 12.5 93.6719H22.5V69.8281H35V86.8594H45V69.8281H55V86.8594H65V69.8281H75V86.8594H85V69.8281H95V86.8594H105V69.8281H115V86.8594H125V69.8281H142.5V93.6719H147.5C148.825 93.6692 150.094 93.3094 151.031 92.6712C151.968 92.033 152.496 91.1682 152.5 90.2656V56.2031C152.496 55.3006 151.968 54.4357 151.031 53.7975C150.094 53.1593 148.825 52.7996 147.5 52.7969ZM25 64.7188H15V57.9062H25V64.7188ZM45 64.7188H35V57.9062H45V64.7188ZM65 64.7188H55V57.9062H65V64.7188ZM85 64.7188H75V57.9062H85V64.7188ZM105 64.7188H95V57.9062H105V64.7188ZM125 64.7188H115V57.9062H125V64.7188ZM145 64.7188H135V57.9062H145V64.7188Z" fill="#CAB998" fill-opacity="0.99"/>
<path d="M127.5 45.9844C130.261 45.9844 132.5 44.4593 132.5 42.5781C132.5 40.6969 130.261 39.1719 127.5 39.1719C124.739 39.1719 122.5 40.6969 122.5 42.5781C122.5 44.4593 124.739 45.9844 127.5 45.9844Z" fill="#CAB998" fill-opacity="0.99"/>
<path d="M75 39.1719V45.9844H85V39.1719H80H75Z" fill="#CAB998" fill-opacity="0.99"/>
<path d="M27.5 34.0625C30.2614 34.0625 32.5 32.5375 32.5 30.6562C32.5 28.775 30.2614 27.25 27.5 27.25C24.7386 27.25 22.5 28.775 22.5 30.6562C22.5 32.5375 24.7386 34.0625 27.5 34.0625Z" fill="#CAB998" fill-opacity="0.99"/>
<path d="M147.5 51.0938H95V45.9844C95 45.5327 94.7366 45.0995 94.2678 44.7801C93.7989 44.4607 93.163 44.2812 92.5 44.2812H87.5V39.1719C87.5 38.7202 87.2366 38.287 86.7678 37.9676C86.2989 37.6482 85.663 37.4688 85 37.4688H82.5V35.7656C82.5 34.4105 81.7098 33.1109 80.3033 32.1528C78.8968 31.1946 76.9891 30.6562 75 30.6562H55C54.337 30.6562 53.7011 30.4768 53.2322 30.1574C52.7634 29.838 52.5 29.4048 52.5 28.9531C52.5 28.5014 52.7634 28.0682 53.2322 27.7488C53.7011 27.4294 54.337 27.25 55 27.25H120V23.8438H55C53.0109 23.8438 51.1032 24.3821 49.6967 25.3403C48.2902 26.2984 47.5 27.598 47.5 28.9531C47.5 30.3082 48.2902 31.6078 49.6967 32.566C51.1032 33.5242 53.0109 34.0625 55 34.0625H75C75.663 34.0625 76.2989 34.2419 76.7678 34.5613C77.2366 34.8807 77.5 35.3139 77.5 35.7656V37.4688H75C74.337 37.4688 73.7011 37.6482 73.2322 37.9676C72.7634 38.287 72.5 38.7202 72.5 39.1719V44.2812H67.5C66.837 44.2812 66.2011 44.4607 65.7322 44.7801C65.2634 45.0995 65 45.5327 65 45.9844V51.0938H12.5C10.5109 51.0938 8.60322 51.6321 7.1967 52.5903C5.79018 53.5484 5 54.848 5 56.2031V90.2656C5 91.6207 5.79018 92.9203 7.1967 93.8785C8.60322 94.8367 10.5109 95.375 12.5 95.375H147.5C149.489 95.375 151.397 94.8367 152.803 93.8785C154.21 92.9203 155 91.6207 155 90.2656V56.2031C155 54.848 154.21 53.5484 152.803 52.5903C151.397 51.6321 149.489 51.0938 147.5 51.0938ZM77.5 40.875H82.5V44.2812H77.5V40.875ZM70 47.6875H90V51.0938H70V47.6875ZM52.5 71.5312V86.8594C52.5 87.3111 52.7634 87.7443 53.2322 88.0637C53.7011 88.3831 54.337 88.5625 55 88.5625H57.5V91.9688H42.5V88.5625H45C45.663 88.5625 46.2989 88.3831 46.7678 88.0637C47.2366 87.7443 47.5 87.3111 47.5 86.8594V71.5312H52.5ZM72.5 71.5312V86.8594C72.5 87.3111 72.7634 87.7443 73.2322 88.0637C73.7011 88.3831 74.337 88.5625 75 88.5625H77.5V91.9688H62.5V88.5625H65C65.663 88.5625 66.2989 88.3831 66.7678 88.0637C67.2366 87.7443 67.5 87.3111 67.5 86.8594V71.5312H72.5ZM92.5 71.5312V86.8594C92.5 87.3111 92.7634 87.7443 93.2322 88.0637C93.7011 88.3831 94.337 88.5625 95 88.5625H97.5V91.9688H82.5V88.5625H85C85.663 88.5625 86.2989 88.3831 86.7678 88.0637C87.2366 87.7443 87.5 87.3111 87.5 86.8594V71.5312H92.5ZM112.5 71.5312V86.8594C112.5 87.3111 112.763 87.7443 113.232 88.0637C113.701 88.3831 114.337 88.5625 115 88.5625H117.5V91.9688H102.5V88.5625H105C105.663 88.5625 106.299 88.3831 106.768 88.0637C107.237 87.7443 107.5 87.3111 107.5 86.8594V71.5312H112.5ZM117.5 85.1562V71.5312H122.5V85.1562H117.5ZM102.5 85.1562H97.5V71.5312H102.5V85.1562ZM82.5 85.1562H77.5V71.5312H82.5V85.1562ZM62.5 85.1562H57.5V71.5312H62.5V85.1562ZM42.5 85.1562H37.5V71.5312H42.5V85.1562ZM35 88.5625H37.5V91.9688H25V71.5312H32.5V86.8594C32.5 87.3111 32.7634 87.7443 33.2322 88.0637C33.7011 88.3831 34.337 88.5625 35 88.5625ZM122.5 91.9688V88.5625H125C125.663 88.5625 126.299 88.3831 126.768 88.0637C127.237 87.7443 127.5 87.3111 127.5 86.8594V71.5312H140V91.9688H122.5ZM150 90.2656C150 90.7173 149.737 91.1505 149.268 91.4699C148.799 91.7893 148.163 91.9688 147.5 91.9688H145V69.8281C145 69.3764 144.737 68.9432 144.268 68.6238C143.799 68.3044 143.163 68.125 142.5 68.125H22.5C21.837 68.125 21.2011 68.3044 20.7322 68.6238C20.2634 68.9432 20 69.3764 20 69.8281V91.9688H12.5C11.837 91.9688 11.2011 91.7893 10.7322 91.4699C10.2634 91.1505 10 90.7173 10 90.2656V56.2031C10 55.7514 10.2634 55.3182 10.7322 54.9988C11.2011 54.6794 11.837 54.5 12.5 54.5H147.5C148.163 54.5 148.799 54.6794 149.268 54.9988C149.737 55.3182 150 55.7514 150 56.2031V90.2656ZM27.5 35.7656C29.4891 35.7656 31.3968 35.2273 32.8033 34.2691C34.2098 33.3109 35 32.0113 35 30.6562V15.3281H45V11.9219H30V25.8603C29.1994 25.6585 28.3536 25.5525 27.5 25.5469C25.5109 25.5469 23.6032 26.0852 22.1967 27.0434C20.7902 28.0016 20 29.3012 20 30.6562C20 32.0113 20.7902 33.3109 22.1967 34.2691C23.6032 35.2273 25.5109 35.7656 27.5 35.7656ZM27.5 28.9531C27.9945 28.9531 28.4778 29.053 28.8889 29.2402C29.3 29.4273 29.6205 29.6933 29.8097 30.0045C29.9989 30.3157 30.0484 30.6581 29.952 30.9885C29.8555 31.3189 29.6174 31.6224 29.2678 31.8605C28.9181 32.0987 28.4727 32.2609 27.9877 32.3267C27.5028 32.3924 27.0001 32.3586 26.5433 32.2297C26.0865 32.1008 25.696 31.8825 25.4213 31.6025C25.1466 31.3224 25 30.9931 25 30.6562C25 30.2046 25.2634 29.7714 25.7322 29.452C26.2011 29.1326 26.837 28.9531 27.5 28.9531Z" fill="#5F4401"/>
<path d="M127.5 47.6875C129.489 47.6875 131.397 47.1492 132.803 46.191C134.21 45.2328 135 43.9332 135 42.5781V27.25H145V23.8438H130V37.7821C129.199 37.5804 128.354 37.4744 127.5 37.4688C125.511 37.4688 123.603 38.0071 122.197 38.9653C120.79 39.9234 120 41.223 120 42.5781C120 43.9332 120.79 45.2328 122.197 46.191C123.603 47.1492 125.511 47.6875 127.5 47.6875ZM127.5 40.875C127.994 40.875 128.478 40.9749 128.889 41.162C129.3 41.3492 129.62 41.6152 129.81 41.9264C129.999 42.2376 130.048 42.58 129.952 42.9104C129.855 43.2408 129.617 43.5442 129.268 43.7824C128.918 44.0206 128.473 44.1828 127.988 44.2485C127.503 44.3142 127 44.2805 126.543 44.1516C126.086 44.0227 125.696 43.8044 125.421 43.5243C125.147 43.2443 125 42.915 125 42.5781C125 42.1264 125.263 41.6932 125.732 41.3738C126.201 41.0544 126.837 40.875 127.5 40.875ZM25 56.2031H15C14.337 56.2031 13.7011 56.3826 13.2322 56.702C12.7634 57.0214 12.5 57.4546 12.5 57.9062V64.7188C12.5 65.1704 12.7634 65.6036 13.2322 65.923C13.7011 66.2424 14.337 66.4219 15 66.4219H25C25.663 66.4219 26.2989 66.2424 26.7678 65.923C27.2366 65.6036 27.5 65.1704 27.5 64.7188V57.9062C27.5 57.4546 27.2366 57.0214 26.7678 56.702C26.2989 56.3826 25.663 56.2031 25 56.2031ZM22.5 63.0156H17.5V59.6094H22.5V63.0156ZM45 56.2031H35C34.337 56.2031 33.7011 56.3826 33.2322 56.702C32.7634 57.0214 32.5 57.4546 32.5 57.9062V64.7188C32.5 65.1704 32.7634 65.6036 33.2322 65.923C33.7011 66.2424 34.337 66.4219 35 66.4219H45C45.663 66.4219 46.2989 66.2424 46.7678 65.923C47.2366 65.6036 47.5 65.1704 47.5 64.7188V57.9062C47.5 57.4546 47.2366 57.0214 46.7678 56.702C46.2989 56.3826 45.663 56.2031 45 56.2031ZM42.5 63.0156H37.5V59.6094H42.5V63.0156ZM65 56.2031H55C54.337 56.2031 53.7011 56.3826 53.2322 56.702C52.7634 57.0214 52.5 57.4546 52.5 57.9062V64.7188C52.5 65.1704 52.7634 65.6036 53.2322 65.923C53.7011 66.2424 54.337 66.4219 55 66.4219H65C65.663 66.4219 66.2989 66.2424 66.7678 65.923C67.2366 65.6036 67.5 65.1704 67.5 64.7188V57.9062C67.5 57.4546 67.2366 57.0214 66.7678 56.702C66.2989 56.3826 65.663 56.2031 65 56.2031ZM62.5 63.0156H57.5V59.6094H62.5V63.0156ZM85 56.2031H75C74.337 56.2031 73.7011 56.3826 73.2322 56.702C72.7634 57.0214 72.5 57.4546 72.5 57.9062V64.7188C72.5 65.1704 72.7634 65.6036 73.2322 65.923C73.7011 66.2424 74.337 66.4219 75 66.4219H85C85.663 66.4219 86.2989 66.2424 86.7678 65.923C87.2366 65.6036 87.5 65.1704 87.5 64.7188V57.9062C87.5 57.4546 87.2366 57.0214 86.7678 56.702C86.2989 56.3826 85.663 56.2031 85 56.2031ZM82.5 63.0156H77.5V59.6094H82.5V63.0156ZM105 56.2031H95C94.337 56.2031 93.7011 56.3826 93.2322 56.702C92.7634 57.0214 92.5 57.4546 92.5 57.9062V64.7188C92.5 65.1704 92.7634 65.6036 93.2322 65.923C93.7011 66.2424 94.337 66.4219 95 66.4219H105C105.663 66.4219 106.299 66.2424 106.768 65.923C107.237 65.6036 107.5 65.1704 107.5 64.7188V57.9062C107.5 57.4546 107.237 57.0214 106.768 56.702C106.299 56.3826 105.663 56.2031 105 56.2031ZM102.5 63.0156H97.5V59.6094H102.5V63.0156ZM125 56.2031H115C114.337 56.2031 113.701 56.3826 113.232 56.702C112.763 57.0214 112.5 57.4546 112.5 57.9062V64.7188C112.5 65.1704 112.763 65.6036 113.232 65.923C113.701 66.2424 114.337 66.4219 115 66.4219H125C125.663 66.4219 126.299 66.2424 126.768 65.923C127.237 65.6036 127.5 65.1704 127.5 64.7188V57.9062C127.5 57.4546 127.237 57.0214 126.768 56.702C126.299 56.3826 125.663 56.2031 125 56.2031ZM122.5 63.0156H117.5V59.6094H122.5V63.0156ZM145 56.2031H135C134.337 56.2031 133.701 56.3826 133.232 56.702C132.763 57.0214 132.5 57.4546 132.5 57.9062V64.7188C132.5 65.1704 132.763 65.6036 133.232 65.923C133.701 66.2424 134.337 66.4219 135 66.4219H145C145.663 66.4219 146.299 66.2424 146.768 65.923C147.237 65.6036 147.5 65.1704 147.5 64.7188V57.9062C147.5 57.4546 147.237 57.0214 146.768 56.702C146.299 56.3826 145.663 56.2031 145 56.2031ZM142.5 63.0156H137.5V59.6094H142.5V63.0156Z" fill="#5F4401"/>
</svg>
