<svg width="45" height="41" viewBox="0 0 45 41" fill="none" xmlns="http://www.w3.org/2000/svg">
<path fill-rule="evenodd" clip-rule="evenodd" d="M15.2251 5.19413C15.0991 5.17613 14.9709 5.17339 14.8441 5.18598C12.3211 5.43331 8.4811 6.66726 6.2131 7.78162C6.0633 7.85564 5.92922 7.95319 5.8171 8.06972C4.8751 9.04547 4.0201 10.6355 3.3511 12.1412C2.6611 13.685 2.0911 15.3158 1.7701 16.4954C0.708102 20.3277 0.129102 24.9292 0.0511021 29.2942C0.0486206 29.512 0.106377 29.7269 0.219102 29.9193C1.1191 31.4767 3.0601 32.9199 5.0041 33.9745C6.9691 35.0426 9.2641 35.8852 11.1121 36.0483C11.3335 36.0674 11.5568 36.0398 11.7645 35.9677C11.9722 35.8955 12.1586 35.7808 12.3091 35.6324C12.7711 35.1785 13.5571 34.1185 14.1511 33.295C14.4211 32.9199 14.6761 32.5612 14.8741 32.2758C16.8601 32.6019 19.3501 32.7922 22.5001 32.7922C25.6441 32.7922 28.1341 32.6019 30.1201 32.2758C30.3181 32.5639 30.5701 32.9199 30.8401 33.2923C31.4341 34.1185 32.2201 35.1785 32.6851 35.6324C32.8356 35.7808 33.022 35.8955 33.2297 35.9677C33.4374 36.0398 33.6607 36.0674 33.8821 36.0483C35.7301 35.8852 38.0221 35.0426 39.9871 33.9745C41.9311 32.9199 43.8721 31.4767 44.7751 29.9193C44.8868 29.7267 44.9435 29.5118 44.9401 29.2942C44.8651 24.9292 44.2831 20.325 43.2271 16.4926C42.8028 15.0125 42.2726 13.559 41.6401 12.1412C40.9711 10.6355 40.1161 9.04275 39.1771 8.06972C39.0641 7.95294 38.929 7.85537 38.7781 7.78162C36.5131 6.66726 32.6731 5.43331 30.1471 5.18598C30.0213 5.17363 29.8942 5.17637 29.7691 5.19413C29.2037 5.29272 28.6734 5.51476 28.2241 5.841C27.2178 6.57494 26.4042 7.5024 25.8421 8.55624C24.7302 8.47723 23.6154 8.43824 22.5001 8.43936C21.2941 8.43936 20.1781 8.48013 19.1491 8.55352C18.5867 7.50066 17.7731 6.57416 16.7671 5.841C16.3187 5.51515 15.7894 5.29313 15.2251 5.19413ZM33.0541 31.5908C33.4763 32.1799 33.9094 32.7626 34.3531 33.3385C35.5411 33.0939 37.0561 32.5231 38.5081 31.7349C40.1371 30.8516 41.4301 29.8323 42.0541 28.9707C41.9551 24.8775 41.3971 20.6266 40.4341 17.1259C40.0418 15.7625 39.5528 14.4233 38.9701 13.117C38.3701 11.7634 37.7251 10.6164 37.1641 9.9587C35.2141 9.04275 32.1391 8.07516 30.1351 7.81152C30.0748 7.84465 30.0167 7.88095 29.9611 7.92024C29.7125 8.09741 29.4853 8.29784 29.2831 8.51818C29.1648 8.64577 29.0518 8.77723 28.9441 8.91229C29.8591 9.06449 30.6751 9.24659 31.3981 9.44772C33.4501 10.0185 34.9291 10.8067 35.6521 11.6792C35.8812 11.956 35.9796 12.3039 35.9256 12.6464C35.8716 12.989 35.6696 13.298 35.3641 13.5056C35.2128 13.6084 35.0407 13.6832 34.8575 13.7257C34.6743 13.7682 34.4837 13.7777 34.2965 13.7534C33.9184 13.7045 33.5773 13.5215 33.3481 13.2447C33.1711 13.0327 32.4001 12.4565 30.5521 11.9401C28.7671 11.4454 26.1421 11.0486 22.5001 11.0486C18.8581 11.0486 16.2301 11.4454 14.4481 11.9428C12.6001 12.4592 11.8291 13.03 11.6521 13.2447C11.5386 13.3818 11.3965 13.4972 11.2338 13.5845C11.0711 13.6718 10.891 13.7292 10.7037 13.7534C10.3257 13.8024 9.94163 13.7132 9.6361 13.5056C9.48482 13.4028 9.35737 13.274 9.26102 13.1266C9.16467 12.9792 9.10132 12.816 9.07457 12.6464C9.02056 12.3039 9.11895 11.956 9.3481 11.6792C10.0711 10.804 11.5501 10.0212 13.6021 9.45044C14.3221 9.24659 15.1381 9.06721 16.0501 8.915C15.9423 8.77846 15.8282 8.64608 15.7081 8.51818C15.5069 8.29798 15.2806 8.09756 15.0331 7.92024C14.9765 7.88087 14.9174 7.84457 14.8561 7.81152C12.8551 8.07516 9.7801 9.04275 7.8301 9.9587C7.2661 10.6192 6.6241 11.7634 6.0211 13.117C5.3821 14.5575 4.8511 16.0714 4.5601 17.1259C3.5941 20.6266 3.0361 24.8775 2.9401 28.9707C3.5641 29.8351 4.8541 30.8516 6.4831 31.7376C7.9381 32.5258 9.4501 33.0966 10.6411 33.3385C11.0893 32.7653 11.5224 32.1826 11.9401 31.5908C9.5851 30.8325 8.3221 29.7916 7.5001 28.6772C7.39531 28.5344 7.32258 28.3744 7.28607 28.2061C7.24955 28.0379 7.24997 27.8648 7.2873 27.6967C7.32463 27.5286 7.39814 27.3688 7.50363 27.2265C7.60911 27.0841 7.74452 26.962 7.9021 26.8671C8.05969 26.7721 8.23637 26.7062 8.42207 26.6731C8.60776 26.6401 8.79883 26.6404 8.98436 26.6743C9.16989 26.7081 9.34625 26.7747 9.50338 26.8702C9.6605 26.9658 9.79531 27.0885 9.9001 27.2313C10.6801 28.2967 12.7321 30.183 22.5001 30.183C32.2711 30.183 34.3201 28.2967 35.1001 27.2313C35.3117 26.9429 35.6411 26.7426 36.0158 26.6743C36.3905 26.606 36.7798 26.6753 37.0981 26.8671C37.4164 27.0588 37.6375 27.3572 37.7129 27.6967C37.7883 28.0362 37.7117 28.3889 37.5001 28.6772C36.6781 29.7916 35.4121 30.8353 33.0541 31.5908ZM12.2401 19.2894C12.9721 18.5773 13.9651 18.1751 15.0001 18.1696C16.0351 18.1751 17.0281 18.5773 17.7601 19.2894C18.4891 20.0042 18.9001 20.9691 18.9001 21.9747C18.9001 22.9804 18.4891 23.9453 17.7601 24.6601C17.0281 25.3722 16.0351 25.7744 15.0001 25.7799C14.4798 25.7749 13.9663 25.6729 13.4914 25.4803C13.0166 25.2876 12.5906 25.0084 12.2401 24.6601C11.5009 23.9267 11.0939 22.9679 11.1001 21.9747C11.1001 20.9691 11.5111 20.0042 12.2401 19.2894ZM30.0001 18.1696C28.9651 18.1751 27.9721 18.5773 27.2401 19.2894C26.5111 20.0042 26.1001 20.9691 26.1001 21.9747C26.1001 22.9804 26.5111 23.9453 27.2401 24.6601C27.9721 25.3722 28.9651 25.7744 30.0001 25.7799C31.0351 25.7744 32.0281 25.3722 32.7601 24.6601C33.4891 23.9453 33.9001 22.9804 33.9001 21.9747C33.9001 20.9691 33.4891 20.0042 32.7601 19.2894C32.4096 18.9411 31.9836 18.6619 31.5088 18.4692C31.0339 18.2766 30.5204 18.1746 30.0001 18.1696Z" fill="black"/>
</svg>
