<svg width="114" height="110" viewBox="0 0 114 110" fill="none" xmlns="http://www.w3.org/2000/svg">
<g clip-path="url(#clip0_237_31)">
<path d="M46.0488 103.787C35.1074 114.344 23.279 108.643 12.3377 98.0861C1.42021 87.54 -4.5 76.1269 6.44155 65.5695C16.2685 56.0873 37.5282 49.3922 49.656 55.7752L56.1994 62.0774C62.8143 73.8141 55.8757 94.3048 46.0488 103.787Z" fill="#7B5C0F"/>
<path opacity="0.4" d="M18.945 60.7854C15.5662 62.3587 12.465 64.2553 9.9617 66.3576C9.17973 67.0141 9.13809 68.1715 9.87086 68.8788L9.89223 68.8994C10.5504 69.5345 11.604 69.5776 12.3038 68.9857C14.5734 67.0663 17.3933 65.3315 20.4717 63.8903C21.0903 63.6007 21.4913 63.0051 21.4913 62.3417C21.4917 61.0801 20.1224 60.2371 18.945 60.7854Z" fill="white"/>
<path opacity="0.08" d="M46.0486 103.787C35.1073 114.344 23.2789 108.643 12.3375 98.0861C11.4986 97.2768 10.6836 96.4556 9.90479 95.6347C20.1632 104.735 31.0805 108.933 41.2192 99.1386C51.0581 89.6565 57.9968 69.166 51.3937 57.4404L56.1993 62.0774C62.8142 73.8141 55.8755 94.3048 46.0486 103.787Z" fill="#7B5C0F"/>
<path d="M100.77 19.0739L39.425 78.2661C37.6199 80.0079 34.6933 80.0079 32.8882 78.2661C31.0832 76.5244 31.0832 73.7005 32.8882 71.9587L94.2331 12.7665L100.77 19.0739Z" fill="white"/>
<path opacity="0.08" d="M100.768 19.0723L39.4215 78.2661C37.624 80.0121 34.6878 80.0121 32.8901 78.2661C32.6024 77.9885 32.3628 77.6879 32.1711 77.3641C33.9448 78.3587 36.2578 78.1275 37.7676 76.6704L99.1139 17.4767L100.768 19.0723Z" fill="#7B5C0F"/>
<path d="M111.604 12.8438L105.38 18.8495C104.043 20.1398 101.875 20.1398 100.537 18.8495L94.467 12.9922C93.1298 11.7019 93.1298 9.60993 94.467 8.31958L100.691 2.31383C102.028 1.02348 104.196 1.02348 105.534 2.31383L111.604 8.17112C112.941 9.46147 112.941 11.5534 111.604 12.8438ZM33.8613 96.8795C32.3361 98.3511 29.8635 98.3511 28.3386 96.8795L13.7252 82.7786C12.2 81.3069 12.2 78.9211 13.7252 77.4496C15.2504 75.978 17.723 75.9782 19.248 77.4496L33.8613 91.5505C35.3863 93.0219 35.3863 95.4078 33.8613 96.8795Z" fill="#F2F0F0"/>
<path d="M54.3462 44.3575C55.2814 45.2598 55.2814 46.7182 54.3462 47.6205C53.4175 48.5166 51.9061 48.5166 50.971 47.6143C50.0358 46.7119 50.0358 45.2536 50.9645 44.3575C51.8997 43.4551 53.4113 43.4551 54.3462 44.3575ZM60.6329 38.2914C61.5681 39.1937 61.5681 40.6521 60.6329 41.5544C59.7042 42.4505 58.1928 42.4505 57.2577 41.5482C56.3225 40.6458 56.3225 39.1875 57.2512 38.2914C58.1864 37.389 59.6978 37.389 60.6329 38.2914ZM66.9196 32.2255C67.8548 33.1278 67.8548 34.5862 66.9196 35.4885C65.9909 36.3846 64.4795 36.3846 63.5444 35.4823C62.6092 34.5799 62.6092 33.1216 63.5379 32.2255C64.4729 31.3231 65.9845 31.3231 66.9196 32.2255ZM73.2061 26.1594C74.1413 27.0617 74.1413 28.5201 73.2061 29.4224C72.2774 30.3185 70.766 30.3185 69.8309 29.4162C68.8957 28.5138 68.8957 27.0555 69.8244 26.1594C70.7596 25.257 72.271 25.257 73.2061 26.1594ZM79.4928 20.0935C80.428 20.9958 80.428 22.4542 79.4928 23.3565C78.5641 24.2526 77.0527 24.2526 76.1176 23.3503C75.1824 22.4479 75.1824 20.9896 76.1111 20.0935C77.046 19.1911 78.5577 19.1911 79.4928 20.0935ZM85.7793 14.0273C86.7145 14.9297 86.7145 16.388 85.7793 17.2904C84.8506 18.1865 83.3392 18.1865 82.4041 17.2842C81.4689 16.3818 81.4689 14.9235 82.3976 14.0273C83.3328 13.125 84.8441 13.125 85.7793 14.0273Z" fill="#E5E3E5"/>
<path d="M113.805 15.3417L111.821 13.4275L112.015 13.2401C113.58 11.73 113.581 9.2853 112.015 7.7743L105.945 1.91701C104.38 0.406663 101.846 0.406663 100.28 1.91701L100.086 2.10479L98.0974 0.19096C97.8703 -0.0275364 97.5025 -0.0275364 97.2754 0.192034C97.0489 0.411175 97.0489 0.766311 97.2765 0.985237L99.2635 2.89799L95.0749 6.93942L93.0926 5.02666C92.8655 4.80752 92.4976 4.80752 92.2705 5.02666C92.0434 5.2458 92.0434 5.60073 92.2705 5.81987L94.2528 7.73262L94.0558 7.92276C93.299 8.65258 92.8824 9.62325 92.8824 10.6556C92.8824 11.3878 93.0957 12.0866 93.4871 12.6927L87.662 18.3139L86.5612 17.2517C87.3226 16.1571 87.2296 14.6328 86.19 13.6307C86.19 13.6307 86.19 13.6307 86.19 13.6305C85.0279 12.5092 83.1492 12.508 81.9862 13.6307C80.8309 14.746 80.8344 16.5627 81.9931 17.6807C83.0018 18.654 84.5722 18.7917 85.7375 18.0432L86.8399 19.1069L81.3753 24.3798L80.2745 23.3176C81.0359 22.223 80.9429 20.6987 79.9033 19.6966C79.9033 19.6966 79.9033 19.6966 79.9033 19.6964C78.7412 18.5751 76.8625 18.5739 75.6995 19.6966C74.5442 20.8117 74.5471 22.6284 75.7064 23.7466C76.7151 24.7199 78.2855 24.8576 79.4509 24.1091L80.5532 25.1728L75.0886 30.4457L73.9878 29.3835C74.7492 28.2889 74.6562 26.7646 73.6166 25.7625C73.6166 25.7625 73.6166 25.7625 73.6166 25.7623C72.4543 24.6408 70.5764 24.6398 69.4135 25.7625C68.2599 26.8746 68.2537 28.6868 69.4197 29.8126C70.4284 30.7858 71.9988 30.9235 73.1641 30.175L74.2665 31.2387L68.8019 36.5116L67.7011 35.4494C68.4625 34.3548 68.3695 32.8305 67.3299 31.8284C67.3299 31.8284 67.3299 31.8284 67.3299 31.8282C66.1676 30.7067 64.2897 30.7057 63.1268 31.8284C61.9732 32.9405 61.967 34.7527 63.133 35.8784C64.1708 36.8798 65.7504 36.9709 66.879 36.2424L67.9798 37.3046L62.5152 42.5775L61.4144 41.5153C62.1723 40.426 62.0866 38.9007 61.0439 37.8943C59.8847 36.7759 57.9981 36.7761 56.8399 37.8941C55.6843 39.0092 55.6872 40.8261 56.8463 41.9443C57.8841 42.9457 59.4637 43.0368 60.5923 42.3083L61.6931 43.3705L56.2287 48.6432L55.1265 47.5797C55.8974 46.466 55.7754 44.9427 54.7572 43.96C53.5987 42.842 51.713 42.8415 50.5534 43.96C49.3978 45.0751 49.4007 46.892 50.5599 48.0103C51.566 48.9811 53.1369 49.1231 54.3045 48.3727L55.4069 49.4364L49.5434 55.0941C37.2154 48.9717 16.1534 55.402 6.03238 65.173C-3.59461 74.4573 -1.6664 85.3527 11.927 98.4829C23.1201 109.284 35.2676 114.981 46.4594 104.182C56.5771 94.4251 63.2395 74.102 56.9049 62.1925L100.846 19.7935C102.379 20.7165 104.435 20.5547 105.791 19.2459L105.988 19.0557L107.972 20.97C108.199 21.1891 108.567 21.1891 108.794 20.97C109.021 20.7509 109.021 20.3959 108.794 20.1768L106.81 18.2625L110.999 14.2207L112.983 16.1349C113.21 16.3541 113.578 16.3541 113.805 16.1349C114.032 15.9158 114.032 15.5609 113.805 15.3417ZM82.815 16.8875C82.1094 16.2067 82.1065 15.1015 82.8081 14.4239C83.5177 13.7397 84.6603 13.7407 85.3677 14.4239C85.3677 14.4239 85.3677 14.4239 85.3677 14.4241C86.0762 15.1067 86.0773 16.2095 85.3677 16.8936C84.6661 17.5707 83.523 17.5707 82.815 16.8875ZM76.5285 22.9537C75.8229 22.2728 75.82 21.1677 76.5216 20.49C77.2312 19.8058 78.3736 19.8068 79.0812 20.49C79.0812 20.49 79.0812 20.49 79.0812 20.4903C79.7897 21.1728 79.7908 22.2756 79.0812 22.9597C78.3797 23.6369 77.2365 23.6369 76.5285 22.9537ZM70.2418 29.0198C69.532 28.3349 69.5342 27.2329 70.2356 26.5562C70.9432 25.8727 72.0863 25.8721 72.7948 26.5562C72.7948 26.5562 72.7948 26.5562 72.7948 26.5564C73.5033 27.2389 73.5044 28.3417 72.7948 29.0258C72.0929 29.7028 70.9498 29.7028 70.2418 29.0198ZM63.9553 35.0857C63.2455 34.4008 63.2477 33.2988 63.9491 32.6221C64.6567 31.9386 65.7998 31.938 66.5083 32.6221C66.5083 32.6221 66.5083 32.6221 66.5083 32.6223C67.2168 33.3048 67.2179 34.4076 66.5083 35.0917C65.8065 35.7689 64.6631 35.7689 63.9553 35.0857ZM57.6686 41.1518C56.963 40.4707 56.9599 39.3656 57.6617 38.688C58.3677 38.0078 59.516 38.0076 60.222 38.6882C60.9296 39.3716 60.931 40.4737 60.2214 41.1578C59.5198 41.8348 58.3767 41.8348 57.6686 41.1518ZM51.3821 47.2177C50.6765 46.5366 50.6734 45.4315 51.3757 44.7539C52.0808 44.0735 53.2297 44.073 53.9353 44.7539C54.6409 45.4349 54.6409 46.5429 53.9353 47.2237C53.2326 47.9013 52.0873 47.8985 51.3821 47.2177ZM58.7745 51.1003L57.051 49.437L62.5154 44.1643L64.239 45.8274C64.4661 46.0466 64.8339 46.0466 65.061 45.8274C65.2881 45.6083 65.2881 45.2534 65.061 45.0342L63.3374 43.3711L68.8021 38.0982L70.5257 39.7613C70.7528 39.9805 71.1206 39.9805 71.3477 39.7613C71.5748 39.5422 71.5748 39.1873 71.3477 38.9681L69.6241 37.305L75.0888 32.0321L76.8124 33.6952C77.0395 33.9143 77.4073 33.9143 77.6344 33.6952C77.8615 33.4761 77.8615 33.1211 77.6344 32.902L75.9108 31.2389L81.3755 25.966L83.0991 27.6291C83.3262 27.8482 83.694 27.8482 83.9211 27.6291C84.1482 27.41 84.1482 27.055 83.9211 26.8359L82.1975 25.1728L87.6622 19.8999L89.3858 21.563C89.6129 21.7821 89.9807 21.7821 90.2078 21.563C90.4349 21.3438 90.4349 20.9889 90.2078 20.7698L88.4842 19.1067L94.2335 13.5592L99.9482 19.0734L39.014 77.8695C37.4381 79.3893 34.8746 79.3893 33.2993 77.8695C31.724 76.3492 31.724 73.8753 33.2993 72.3553L56.2289 50.2302L57.9525 51.8936C58.1796 52.1127 58.5474 52.1127 58.7745 51.8936C59.0017 51.6744 59.0017 51.3195 58.7745 51.1003ZM45.6374 103.389C34.947 113.705 23.4319 107.998 12.7493 97.6905C-0.291279 85.0944 -2.21926 74.7179 6.85465 65.9671C16.4022 56.749 36.901 50.4043 48.6766 55.9313L32.4775 71.5621C30.4489 73.5195 30.4489 76.7048 32.4775 78.6627C34.5063 80.6203 37.8072 80.6205 39.8363 78.6627L56.0385 63.0289C61.869 74.5649 55.3855 93.9888 45.6374 103.389ZM100.95 18.4542L94.878 12.5956C94.341 12.0774 94.0453 11.3886 94.0453 10.6558C94.0453 9.92317 94.341 9.23438 94.878 8.71618C95.7658 7.85981 101.492 2.33961 101.102 2.71043C102.213 1.63901 104.011 1.63815 105.122 2.71043L111.193 8.56772C112.304 9.63979 112.304 11.3751 111.193 12.4474C109.277 14.2963 107.981 15.5463 104.969 18.4531C103.859 19.5237 102.062 19.5254 100.95 18.4542Z" fill="#7B5C0F"/>
<path d="M19.659 77.053C17.9101 75.3648 15.063 75.3648 13.314 77.053C11.5646 78.7411 11.5646 81.4872 13.314 83.1752L27.9276 97.2761C29.6759 98.9635 32.5237 98.9643 34.2726 97.2761C36.022 95.5881 36.022 92.8419 34.2726 91.1539L19.659 77.053ZM33.4504 96.4827C32.1543 97.7333 30.0453 97.7333 28.7494 96.4827L14.1358 82.3818C12.8398 81.1312 12.8398 79.0966 14.1358 77.846C15.4315 76.5959 17.5409 76.5954 18.8368 77.846L33.4504 91.9469C34.7464 93.1975 34.7464 95.2321 33.4504 96.4827Z" fill="#7B5C0F"/>
</g>
<defs>
<clipPath id="clip0_237_31">
<rect width="114" height="110" fill="white"/>
</clipPath>
</defs>
</svg>
