<svg width="150" height="184" viewBox="0 0 150 184" fill="none" xmlns="http://www.w3.org/2000/svg">
<g opacity="0.7">
<path d="M117.577 139.702C120.211 143.175 121.875 147.804 121.875 153.065C121.875 157.93 119.363 162.271 115.636 163.927C102.727 169.642 91.1953 172.5 75 172.5C58.8047 172.5 47.2734 169.642 34.3641 163.921C30.6375 162.271 28.125 157.924 28.125 153.065C28.125 147.81 29.7891 143.175 32.4234 139.708C43.0406 147.925 57.4453 152.375 75 152.375C92.5547 152.375 106.959 147.925 117.577 139.702Z" fill="#7F5B05"/>
<path d="M100.069 51.4854C109.406 79.8387 114.07 101.338 105.853 137.275C99.9844 140.191 93.3656 142.094 86.2453 143.031C92.2547 118.628 93.586 86.0429 93.7313 52.9459C95.911 52.5434 98.025 52.0489 100.069 51.4854ZM86.7 53.9752C86.5266 87.5954 85.0922 120.428 78.7125 143.635C74.8266 143.79 75.1453 143.79 71.2875 143.635C64.9078 120.428 63.4734 87.5954 63.3 53.9752C67.1438 54.3949 71.0672 54.6249 75 54.6249C78.9328 54.6249 82.8563 54.3949 86.7 53.9752ZM35.7656 131.968C25.2844 123.608 18.75 110.572 18.75 91.9999C18.75 76.3254 23.4141 54.9757 31.1625 41.5034C34.1719 44.6314 38.2594 47.1902 43.1063 49.1739C34.0641 76.7452 29.3203 98.3249 35.7656 131.968Z" fill="#7F5B05"/>
<path d="M131.25 92C131.25 110.573 124.716 123.608 114.234 131.968C120.68 98.3308 115.936 76.7453 106.898 49.174C111.741 47.1903 115.828 44.6372 118.837 41.5092C126.586 54.97 131.25 76.3255 131.25 92ZM63.7547 143.031C56.6344 142.088 50.0156 140.185 44.1469 137.276C35.9297 101.338 40.5938 79.8388 49.9313 51.4855C51.975 52.049 54.0891 52.5435 56.2687 52.9517C56.4141 86.043 57.7453 118.628 63.7547 143.031ZM75 11.5C51.6984 11.5 32.8125 19.2223 32.8125 28.75C32.8125 38.2777 51.6984 46 75 46C98.3016 46 117.188 38.2777 117.188 28.75C117.188 19.2223 98.3016 11.5 75 11.5ZM75 34.5C67.2328 34.5 60.9375 31.924 60.9375 28.75C60.9375 25.576 67.2328 23 75 23C82.7672 23 89.0625 25.576 89.0625 28.75C89.0625 31.924 82.7672 34.5 75 34.5Z" fill="#7F5B05"/>
</g>
</svg>
