<svg width="70" height="91" viewBox="0 0 70 91" fill="none" xmlns="http://www.w3.org/2000/svg">
<path d="M54.8691 69.0918C56.0984 70.8094 56.875 73.0986 56.875 75.7007C56.875 78.1065 55.7025 80.2535 53.9634 81.0725C47.9391 83.8992 42.5578 85.3126 35 85.3126C27.4422 85.3126 22.0609 83.8992 16.0366 81.0697C14.2975 80.2535 13.125 78.1036 13.125 75.7007C13.125 73.1015 13.9016 70.8094 15.1309 69.0946C20.0856 73.1584 26.8078 75.3594 35 75.3594C43.1922 75.3594 49.9144 73.1584 54.8691 69.0918Z" fill="#7F5B05"/>
<path d="M46.6988 25.4631C51.0563 39.4856 53.2328 50.1184 49.3981 67.8919C46.6594 69.3336 43.5706 70.2749 40.2478 70.7385C43.0522 58.6696 43.6734 42.5541 43.7413 26.1854C44.7584 25.9864 45.745 25.7418 46.6988 25.4631ZM40.46 26.6945C40.3791 43.3219 39.7097 59.5597 36.7325 71.037C34.9191 71.1138 35.0678 71.1138 33.2675 71.037C30.2903 59.5597 29.6209 43.3219 29.54 26.6945C31.3338 26.9021 33.1647 27.0158 35 27.0158C36.8353 27.0158 38.6663 26.9021 40.46 26.6945ZM16.6906 65.2671C11.7994 61.1323 8.75 54.6855 8.75 45.5002C8.75 37.7481 10.9266 27.1893 14.5425 20.5264C15.9469 22.0734 17.8544 23.3388 20.1163 24.3199C15.8966 37.9557 13.6828 48.6283 16.6906 65.2671Z" fill="#7F5B05"/>
<path d="M61.25 45.5C61.25 54.6853 58.2006 61.1321 53.3094 65.2669C56.3172 48.631 54.1034 37.9555 49.8859 24.3198C52.1456 23.3387 54.0531 22.076 55.4575 20.529C59.0734 27.1862 61.25 37.7479 61.25 45.5ZM29.7522 70.7383C26.4294 70.2719 23.3406 69.3306 20.6019 67.8917C16.7672 50.1183 18.9438 39.4855 23.3013 25.4629C24.255 25.7416 25.2416 25.9862 26.2587 26.1881C26.3266 42.5539 26.9478 58.6694 29.7522 70.7383ZM35 5.6875C24.1259 5.6875 15.3125 9.50666 15.3125 14.2188C15.3125 18.9308 24.1259 22.75 35 22.75C45.8741 22.75 54.6875 18.9308 54.6875 14.2188C54.6875 9.50666 45.8741 5.6875 35 5.6875ZM35 17.0625C31.3753 17.0625 28.4375 15.7885 28.4375 14.2188C28.4375 12.649 31.3753 11.375 35 11.375C38.6247 11.375 41.5625 12.649 41.5625 14.2188C41.5625 15.7885 38.6247 17.0625 35 17.0625Z" fill="#7F5B05"/>
</svg>
