<svg width="252" height="273" viewBox="0 0 252 273" fill="none" xmlns="http://www.w3.org/2000/svg">
<g opacity="0.4">
<path d="M197.529 207.275C201.954 212.428 204.75 219.296 204.75 227.102C204.75 234.319 200.529 240.76 194.268 243.217C172.581 251.697 153.208 255.938 126 255.938C98.7919 255.938 79.4194 251.697 57.7316 243.209C51.471 240.76 47.25 234.311 47.25 227.102C47.25 219.304 50.0456 212.428 54.4714 207.284C72.3082 219.475 96.5081 226.078 126 226.078C155.492 226.078 179.692 219.475 197.529 207.275Z" fill="#FFF2D8" fill-opacity="0.53"/>
<path d="M168.116 76.3888C183.803 118.456 191.638 150.355 177.833 203.675C167.974 208 156.854 210.824 144.892 212.215C154.988 176.008 157.224 127.662 157.469 78.5557C161.13 77.9586 164.682 77.2249 168.116 76.3888ZM145.656 80.0828C145.365 129.965 142.955 178.678 132.237 213.111C125.709 213.341 126.244 213.341 119.763 213.111C109.045 178.678 106.635 129.965 106.344 80.0828C112.802 80.7056 119.393 81.0469 126 81.0469C132.607 81.0469 139.199 80.7056 145.656 80.0828ZM60.0863 195.801C42.4778 183.396 31.5 164.056 31.5 136.5C31.5 113.244 39.3356 81.5673 52.353 61.5786C57.4088 66.2196 64.2758 70.016 72.4185 72.9592C57.2276 113.867 49.2581 145.884 60.0863 195.801Z" fill="#FFFAEF" fill-opacity="0.45"/>
<path d="M220.5 136.5C220.5 164.056 209.522 183.396 191.914 195.801C202.742 145.893 194.772 113.867 179.589 72.9593C187.724 70.016 194.591 66.2281 199.647 61.5871C212.664 81.5587 220.5 113.244 220.5 136.5ZM107.108 212.215C95.1457 210.816 84.0263 207.992 74.1668 203.675C60.3619 150.355 68.1975 118.456 83.8845 76.3888C87.318 77.2249 90.8696 77.9586 94.5315 78.5643C94.7756 127.662 97.0121 176.008 107.108 212.215ZM126 17.0625C86.8534 17.0625 55.125 28.52 55.125 42.6562C55.125 56.7925 86.8534 68.25 126 68.25C165.147 68.25 196.875 56.7925 196.875 42.6562C196.875 28.52 165.147 17.0625 126 17.0625ZM126 51.1875C112.951 51.1875 102.375 47.3655 102.375 42.6562C102.375 37.947 112.951 34.125 126 34.125C139.049 34.125 149.625 37.947 149.625 42.6562C149.625 47.3655 139.049 51.1875 126 51.1875Z" fill="#FFF2D8" fill-opacity="0.52"/>
</g>
</svg>
