<svg width="114" height="107" viewBox="0 0 114 107" fill="none" xmlns="http://www.w3.org/2000/svg">
<path d="M89.3582 81.2397C91.3603 83.2594 92.625 85.9511 92.625 89.0106C92.625 91.8394 90.7155 94.364 87.8833 95.327C78.0722 98.6507 69.3084 100.312 57 100.312C44.6916 100.312 35.9278 98.6507 26.1167 95.3236C23.2845 94.364 21.375 91.8361 21.375 89.0106C21.375 85.9544 22.6397 83.2594 24.6418 81.2431C32.7109 86.0213 43.6584 88.6094 57 88.6094C70.3416 88.6094 81.2891 86.0213 89.3582 81.2397Z" fill="#7F5B05"/>
<path d="M76.0523 29.9399C83.1488 46.4279 86.6935 58.9302 80.4484 79.8286C75.9881 81.5239 70.9579 82.6307 65.5464 83.1757C70.1136 68.9848 71.1253 50.0358 71.2358 30.7892C72.8923 30.5551 74.499 30.2676 76.0523 29.9399ZM65.892 31.3877C65.7602 50.9386 64.6701 70.0314 59.8215 83.5268C56.8682 83.6171 57.1104 83.6171 54.1785 83.5268C49.3299 70.0314 48.2398 50.9386 48.108 31.3877C51.0293 31.6318 54.0111 31.7656 57 31.7656C59.9889 31.7656 62.9708 31.6318 65.892 31.3877ZM27.1819 76.7423C19.2161 71.8805 14.25 64.3003 14.25 53.4999C14.25 44.3849 17.7947 31.9695 23.6835 24.1351C25.9706 25.9541 29.0771 27.4421 32.7608 28.5957C25.8887 44.629 22.2834 57.1781 27.1819 76.7423Z" fill="#7F5B05"/>
<path d="M99.75 53.5C99.75 64.3003 94.7839 71.8806 86.8181 76.7424C91.7166 57.1815 88.1113 44.629 81.2428 28.5958C84.9229 27.4422 88.0294 25.9575 90.3165 24.1385C96.2053 31.9662 99.75 44.3849 99.75 53.5ZM48.4536 83.1758C43.0421 82.6274 38.0119 81.5206 33.5516 79.8287C27.3066 58.9303 30.8513 46.428 37.9478 29.9399C39.501 30.2676 41.1077 30.5552 42.7642 30.7926C42.8747 50.0359 43.8864 68.9849 48.4536 83.1758ZM57 6.6875C39.2908 6.6875 24.9375 11.1782 24.9375 16.7188C24.9375 22.2593 39.2908 26.75 57 26.75C74.7092 26.75 89.0625 22.2593 89.0625 16.7188C89.0625 11.1782 74.7092 6.6875 57 6.6875ZM57 20.0625C51.0969 20.0625 46.3125 18.5645 46.3125 16.7188C46.3125 14.873 51.0969 13.375 57 13.375C62.9031 13.375 67.6875 14.873 67.6875 16.7188C67.6875 18.5645 62.9031 20.0625 57 20.0625Z" fill="#7F5B05"/>
</svg>
