<svg width="54" height="64" viewBox="0 0 54 64" fill="none" xmlns="http://www.w3.org/2000/svg">
<path d="M42.3276 48.592C43.2759 49.8 43.875 51.41 43.875 53.24C43.875 54.932 42.9705 56.442 41.6289 57.018C36.9816 59.006 32.8303 60 27 60C21.1697 60 17.0184 59.006 12.3711 57.016C11.0295 56.442 10.125 54.93 10.125 53.24C10.125 51.412 10.7241 49.8 11.6724 48.594C15.4946 51.452 20.6803 53 27 53C33.3197 53 38.5054 51.452 42.3276 48.592Z" fill="#7F5B05"/>
<path d="M36.0248 17.908C39.3863 27.77 41.0653 35.248 38.1071 47.748C35.9944 48.762 33.6116 49.424 31.0483 49.75C33.2117 41.262 33.6909 29.928 33.7433 18.416C34.5279 18.276 35.289 18.104 36.0248 17.908ZM31.212 18.774C31.1496 30.468 30.6332 41.888 28.3365 49.96C26.9376 50.014 27.0523 50.014 25.6635 49.96C23.3668 41.888 22.8504 30.468 22.788 18.774C24.1718 18.92 25.5842 19 27 19C28.4158 19 29.8283 18.92 31.212 18.774ZM12.8756 45.902C9.10238 42.994 6.75 38.46 6.75 32C6.75 26.548 8.42906 19.122 11.2185 14.436C12.3019 15.524 13.7734 16.414 15.5183 17.104C12.2631 26.694 10.5553 34.2 12.8756 45.902Z" fill="#7F5B05"/>
<path d="M47.25 32C47.25 38.46 44.8976 42.994 41.1244 45.902C43.4447 34.202 41.7369 26.694 38.4834 17.104C40.2266 16.414 41.6981 15.526 42.7815 14.438C45.5709 19.12 47.25 26.548 47.25 32ZM22.9517 49.75C20.3884 49.422 18.0056 48.76 15.8929 47.748C12.9347 35.248 14.6138 27.77 17.9753 17.908C18.711 18.104 19.4721 18.276 20.2567 18.418C20.3091 29.928 20.7883 41.262 22.9517 49.75ZM27 4C18.6114 4 11.8125 6.686 11.8125 10C11.8125 13.314 18.6114 16 27 16C35.3886 16 42.1875 13.314 42.1875 10C42.1875 6.686 35.3886 4 27 4ZM27 12C24.2038 12 21.9375 11.104 21.9375 10C21.9375 8.896 24.2038 8 27 8C29.7962 8 32.0625 8.896 32.0625 10C32.0625 11.104 29.7962 12 27 12Z" fill="#7F5B05"/>
</svg>
