<svg width="306" height="548" viewBox="0 0 306 548" fill="none" xmlns="http://www.w3.org/2000/svg">
<path d="M306 455.071V86.1706H272.802C276.266 67.6974 251.151 65.3319 238.16 66.4583C238.882 60.2631 231.665 36.0452 195.58 30.4131C166.712 25.9075 154.684 8.26038 152.278 0C149.392 8.26038 135.824 25.9075 104.646 30.4131C73.4689 34.9188 66.1557 56.3206 66.3962 66.4583C31.033 60.2631 31.033 83.3546 31.7547 83.9178C32.3321 84.3683 10.8255 85.6074 0 86.1706V454.508L31.7547 458.45C29.4453 478.726 52.4434 479.289 64.2311 477.036C61.8255 487.549 65.9632 510.153 101.759 516.46C137.556 522.768 150.354 540.115 152.278 548C153.481 540.678 165.125 524.12 202.075 516.46C239.026 508.801 242.972 486.986 240.325 477.036C268.616 483.794 275.208 467.461 274.967 458.45L306 455.071Z" fill="#FBF8F2"/>
</svg>
