<svg width="306" height="540" viewBox="0 0 306 540" fill="none" xmlns="http://www.w3.org/2000/svg">
<path d="M306 448.428V84.9127H272.802C276.266 66.7092 251.151 64.3782 238.16 65.4882C238.882 59.3834 231.665 35.519 195.58 29.9692C166.712 25.5293 154.684 8.13977 152.278 0C149.392 8.13977 135.824 25.5293 104.646 29.9692C73.4689 34.4091 66.1557 55.4985 66.3962 65.4882C31.033 59.3834 31.033 82.1378 31.7547 82.6927C32.3321 83.1367 10.8255 84.3577 0 84.9127V447.873L31.7547 451.757C29.4453 471.737 52.4434 472.292 64.2311 470.072C61.8255 480.432 65.9632 502.705 101.759 508.921C137.556 515.137 150.354 532.23 152.278 540C153.481 532.785 165.125 516.469 202.075 508.921C239.026 501.373 242.972 479.877 240.325 470.072C268.616 476.732 275.208 460.637 274.967 451.757L306 448.428Z" fill="#FBF8F2"/>
</svg>
