<svg width="40" height="33" viewBox="0 0 40 33" fill="none" xmlns="http://www.w3.org/2000/svg">
<path d="M11.6 0.230957H28.4C34.8 0.230957 40 4.47096 40 9.68942V23.3879C40 25.8964 38.7779 28.3022 36.6024 30.076C34.427 31.8498 31.4765 32.8463 28.4 32.8463H11.6C5.2 32.8463 0 28.6063 0 23.3879V9.68942C0 7.18088 1.22214 4.77508 3.39756 3.00128C5.57298 1.22747 8.52349 0.230957 11.6 0.230957ZM11.2 3.4925C9.29044 3.4925 7.45909 4.11102 6.10883 5.212C4.75857 6.31299 4 7.80624 4 9.36326V23.714C4 26.9593 7.22 29.5848 11.2 29.5848H28.8C30.7096 29.5848 32.5409 28.9663 33.8912 27.8653C35.2414 26.7643 36 25.2711 36 23.714V9.36326C36 6.11803 32.78 3.4925 28.8 3.4925H11.2ZM30.5 5.93865C31.163 5.93865 31.7989 6.15341 32.2678 6.5357C32.7366 6.91799 33 7.43648 33 7.97711C33 8.51774 32.7366 9.03623 32.2678 9.41852C31.7989 9.80081 31.163 10.0156 30.5 10.0156C29.837 10.0156 29.2011 9.80081 28.7322 9.41852C28.2634 9.03623 28 8.51774 28 7.97711C28 7.43648 28.2634 6.91799 28.7322 6.5357C29.2011 6.15341 29.837 5.93865 30.5 5.93865ZM20 8.3848C22.6522 8.3848 25.1957 9.24387 27.0711 10.773C28.9464 12.3022 30 14.3761 30 16.5386C30 18.7012 28.9464 20.7751 27.0711 22.3043C25.1957 23.8334 22.6522 24.6925 20 24.6925C17.3478 24.6925 14.8043 23.8334 12.9289 22.3043C11.0536 20.7751 10 18.7012 10 16.5386C10 14.3761 11.0536 12.3022 12.9289 10.773C14.8043 9.24387 17.3478 8.3848 20 8.3848ZM20 11.6463C18.4087 11.6463 16.8826 12.1618 15.7574 13.0793C14.6321 13.9967 14 15.2411 14 16.5386C14 17.8362 14.6321 19.0805 15.7574 19.998C16.8826 20.9155 18.4087 21.431 20 21.431C21.5913 21.431 23.1174 20.9155 24.2426 19.998C25.3679 19.0805 26 17.8362 26 16.5386C26 15.2411 25.3679 13.9967 24.2426 13.0793C23.1174 12.1618 21.5913 11.6463 20 11.6463Z" fill="black"/>
</svg>
