<svg width="493" height="739" viewBox="0 0 493 739" fill="none" xmlns="http://www.w3.org/2000/svg">
<path d="M493 613.681V116.205H439.514C445.095 91.2927 404.632 88.1028 383.703 89.6218C384.866 81.2672 373.238 48.6083 315.101 41.0133C268.592 34.9373 249.213 11.1394 245.337 0C240.686 11.1394 218.827 34.9373 168.597 41.0133C118.367 47.0894 106.584 75.9507 106.972 89.6218C49.9977 81.2672 49.9977 112.407 51.1604 113.167C52.0906 113.774 17.441 115.445 0 116.205V612.922L51.1604 618.238C47.4397 645.581 84.4922 646.34 103.484 643.302C99.6077 657.48 106.274 687.961 163.946 696.468C221.617 704.974 242.237 728.367 245.337 739C247.275 729.126 266.034 706.797 325.566 696.468C385.098 686.138 391.454 656.72 387.191 643.302C432.77 652.416 443.39 630.391 443.002 618.238L493 613.681Z" fill="#FBF8F2"/>
</svg>
